<svg xmlns="http://www.w3.org/2000/svg" xmlns:xlink="http://www.w3.org/1999/xlink" width="57" height="25" viewBox="0 0 57 25"><defs><path id="yd9ha" d="M714.5 27.82a5.03 5.03 0 1 1 0 10.06 5.03 5.03 0 0 1 0-10.06zm20.12 0a5.03 5.03 0 1 1 0 10.06 5.03 5.03 0 0 1 0-10.06zm-40.24 0a5.03 5.03 0 1 1 0 10.06 5.03 5.03 0 0 1 0-10.06zm25.15 11.73a1.68 1.68 0 0 0 3.35 0v-6.7a8.39 8.39 0 1 0-3.35 6.7zm6.7-6.7a8.39 8.39 0 1 0 16.78 0 8.39 8.39 0 0 0-16.77 0zm-31.85 8.38a8.39 8.39 0 1 0-5.03-15.09v-6.7a1.68 1.68 0 0 0-3.35 0v13.74a8.39 8.39 0 0 0 8.38 8.05z"/></defs><g><g transform="translate(-686 -17)"><use fill="#fff" xlink:href="#yd9ha"/></g></g></svg>